<?xml version="1.0" encoding="utf-8"?>
<!-- Svg Vector Icons : http://www.onlinewebfonts.com/icon -->
<!DOCTYPE svg PUBLIC "-//W3C//DTD SVG 1.1//EN" "http://www.w3.org/Graphics/SVG/1.1/DTD/svg11.dtd">
<svg version="1.1" xmlns="http://www.w3.org/2000/svg" xmlns:xlink="http://www.w3.org/1999/xlink" x="0px" y="0px" viewBox="0 0 1000 1000" enable-background="new 0 0 1000 1000" xml:space="preserve">
<metadata> Svg Vector Icons : http://www.onlinewebfonts.com/icon </metadata>
<g><g transform="translate(0.000000,511.000000) scale(0.100000,-0.100000)"><path d="M979.9,3236.7V1463.4h675.1H2330v352.6v352.6h433.2h433.2v-352.6v-352.6h675.1h675.1v675.1v675.1h352.6h352.6v423.2v423.2h-352.6h-352.6v675.1V5010H2763.2H979.9V3236.7z"/><path d="M5473.5,4334.9v-675.1h352.6h352.6v-423.2v-423.2h-352.6h-352.6v-675.1v-675.1l671-4l669-6l6-356.7l4-358.7h423.2H7670v362.7v362.7h675.1h675.1v1773.3V5010H7246.8H5473.5V4334.9z"/><path d="M2330,828.7V476h-675.1H979.9v-1783.4v-1783.4h1783.4h1783.4v675.1v675.1l-356.7,4l-358.7,6.1v423.2v423.2l358.7,6l356.7,4l-4,671l-6,669l-669,6l-671,4v352.6v352.6h-433.2H2330V828.7z"/><path d="M6289.7-88.2C5882.6-195,5449.4-469.1,5255.9-745.1l-44.3-64.5l157.2-165.2l155.2-167.3l161.2,161.2c179.3,177.3,364.7,286.2,576.3,340.5c405,102.8,729.5-165.2,757.7-624.7c14.1-197.5-12.1-354.6-108.8-675c-118.9-397-133-479.6-135-747.6c0-177.3,10.1-290.2,34.3-380.9c40.3-151.1,187.4-471.5,209.6-461.4c10.1,2,126.9,50.4,262,104.8l243.8,98.7l-68.5,143.1c-175.3,372.8-175.3,687.1,4,1251.4c137.1,437.3,179.4,783.9,127,1041.8c-12.1,58.4-58.4,181.3-100.8,274c-133,276.1-354.7,465.5-632.8,538C6696.7-37.8,6462.9-41.9,6289.7-88.2z"/><path d="M7432.2-3959.2c-296.2-147.1-292.2-600.5,8-775.8c266-157.2,614.6,42.3,612.6,348.6C8048.8-4033.7,7728.4-3814.1,7432.2-3959.2z"/></g></g>
</svg>